<svg xmlns="http://www.w3.org/2000/svg" xmlns:xlink="http://www.w3.org/1999/xlink" width="298.547" height="49.872" viewBox="0 0 298.547 49.872"><defs><style>.a{fill:#b6a999;}.b,.c,.d{opacity:0.4;isolation:isolate;}.b{fill:url(#a);}.c{fill:url(#b);}.d{fill:url(#c);}.e{fill:#231f20;}</style><linearGradient id="a" y1="0.588" x2="1" y2="0.588" gradientUnits="objectBoundingBox"><stop offset="0" stop-color="#231f20"/><stop offset="0.05" stop-color="#373435"/><stop offset="0.19" stop-color="#6c696a"/><stop offset="0.33" stop-color="#999797"/><stop offset="0.46" stop-color="#bebdbd"/><stop offset="0.6" stop-color="#dadada"/><stop offset="0.74" stop-color="#efeeee"/><stop offset="0.87" stop-color="#fbfbfb"/><stop offset="1" stop-color="#fff"/></linearGradient><linearGradient id="b" y1="-1.689" y2="-1.689" xlink:href="#a"/><linearGradient id="c" y1="0.016" y2="0.016" xlink:href="#a"/></defs><path class="a" d="M.71,68.357H58.357L29.533,53.04Z" transform="translate(-0.254 -18.629)"/><path class="a" d="M31.034,41.984,57.158,55.867l-.379-.389L31.034,27.86,5.308,55.458l-.4.409Z" transform="translate(-1.755 -9.785)"/><path class="a" d="M2.159,44.311l27.12-29.1L56.419,44.33l2.14,2.173L44.935,24.861,29.28,0,13.624,24.861,0,46.5Z"/><path class="b" d="M45.56,15.214,72.7,44.33,74.84,46.5,61.215,24.861,45.56,0V15.214Z" transform="translate(-16.28)"/><path class="c" d="M45.56,53.04V68.357H74.383L45.56,53.04Z" transform="translate(-16.28 -18.629)"/><path class="d" d="M45.56,41.984,71.684,55.867l-.379-.389L45.56,27.86h0V41.984Z" transform="translate(-16.28 -9.785)"/><path class="e" d="M124.982,21.96V35.818h-2.416V21.96H118.89V19.67h9.762v2.29Z" transform="translate(-42.484 -6.909)"/><path class="e" d="M141.776,25.989h6.9V19.67h2.416V35.818h-2.416V28.279h-6.9v7.539H139.36V19.67h2.416Z" transform="translate(-49.799 -6.909)"/><path class="e" d="M174.414,21.96h-6.427v3.893h6.221v2.29h-6.221v5.365h6.427V35.8H165.59V19.67h8.824Z" transform="translate(-59.171 -6.909)"/><path class="e" d="M201.882,21.96V35.818h-2.41V21.96H195.79V19.67h9.775v2.29Z" transform="translate(-69.963 -6.909)"/><path class="e" d="M223.208,31.345h-6.844l-1.793,3.925H212l7.911-17.16,7.635,17.16H224.9Zm-.983-2.277-2.371-5.489-2.487,5.489Z" transform="translate(-75.756 -6.361)"/><path class="e" d="M246.738,28.967l4.948,6.883h-2.95l-4.569-6.611h-.437v6.578h-2.41V19.67h2.828a7.038,7.038,0,0,1,4.576,1.2,4.456,4.456,0,0,1,1.555,3.555,4.634,4.634,0,0,1-.977,2.952A4.308,4.308,0,0,1,246.738,28.967Zm-3.008-1.849h.765q3.432,0,3.432-2.647,0-2.479-3.335-2.478h-.861Z" transform="translate(-86.233 -6.909)"/><path class="e" d="M270.2,27.226h6.613v.532A11.069,11.069,0,0,1,276.385,31a6.822,6.822,0,0,1-1.395,2.426,7.2,7.2,0,0,1-5.668,2.491,7.736,7.736,0,0,1-5.745-2.452,8.123,8.123,0,0,1-2.4-5.9,8.394,8.394,0,0,1,8.366-8.422,8.288,8.288,0,0,1,3.5.78,10.032,10.032,0,0,1,3.053,2.511L274.38,24.1a5.821,5.821,0,0,0-4.8-2.647,5.686,5.686,0,0,0-4.254,1.771A5.912,5.912,0,0,0,263.6,27.57a6.053,6.053,0,0,0,5.784,6.066,4.781,4.781,0,0,0,3.213-1.213,4.36,4.36,0,0,0,1.587-2.926H270.2Z" transform="translate(-93.329 -6.725)"/><path class="e" d="M300.954,21.96h-6.427v3.893h6.227v2.29h-6.227v5.365h6.427V35.8H292.13V19.67h8.824Z" transform="translate(-104.389 -6.909)"/><path class="e" d="M316.722,21.96V35.818h-2.416V21.96H310.63V19.67h9.756v2.29Z" transform="translate(-111 -6.909)"/><path class="e" d="M339.924,21.96H333.5v3.893h6.227v2.29H333.5v5.365h6.427V35.8H331.1V19.67h8.824Z" transform="translate(-118.314 -6.909)"/><path class="e" d="M351.82,35.814V19.666h3.329a12.192,12.192,0,0,1,3.811.48,7.2,7.2,0,0,1,2.725,1.6,7.749,7.749,0,0,1,2.474,5.988,7.86,7.86,0,0,1-5.289,7.629,12.326,12.326,0,0,1-3.76.448Zm2.41-2.31h1.093a9.06,9.06,0,0,0,2.7-.344,5.567,5.567,0,0,0,3.715-5.443,5.652,5.652,0,0,0-1.761-4.308,6.7,6.7,0,0,0-4.672-1.473h-1.093Z" transform="translate(-125.718 -6.905)"/><path class="e" d="M130.113,53.623,128.185,54.8a3.346,3.346,0,0,0-1.073-1.246,2.392,2.392,0,0,0-1.337-.337,2.438,2.438,0,0,0-1.664.577,1.792,1.792,0,0,0-.643,1.421c0,.785.585,1.421,1.742,1.9l1.594.649a6.79,6.79,0,0,1,2.853,1.946,4.412,4.412,0,0,1,.9,2.809,4.949,4.949,0,0,1-1.472,3.678,5.032,5.032,0,0,1-3.676,1.466,4.876,4.876,0,0,1-3.438-1.246,5.769,5.769,0,0,1-1.671-3.5l2.449-.545a4.213,4.213,0,0,0,.578,1.946,2.746,2.746,0,0,0,3.885.429q.085-.069.164-.144a2.648,2.648,0,0,0,.745-1.946,2.843,2.843,0,0,0-.129-.863,2.123,2.123,0,0,0-.4-.72,3.2,3.2,0,0,0-.707-.616,6.687,6.687,0,0,0-1.035-.551l-1.549-.649c-2.185-.934-3.284-2.3-3.284-4.094a3.909,3.909,0,0,1,1.382-3.043,4.947,4.947,0,0,1,3.425-1.239A4.815,4.815,0,0,1,130.113,53.623Z" transform="translate(-42.988 -17.87)"/><path class="e" d="M146.552,53.7V67.551h-2.416V53.7H140.46V51.41h9.756V53.7Z" transform="translate(-50.192 -18.057)"/><path class="e" d="M166.348,60.674l4.949,6.877h-2.95l-4.569-6.6h-.437v6.6h-2.41V51.41h2.828q3.169,0,4.576,1.2a4.444,4.444,0,0,1,1.555,3.536,4.567,4.567,0,0,1-.977,2.945A4.347,4.347,0,0,1,166.348,60.674Zm-3.008-1.849h.771q3.425,0,3.425-2.647,0-2.479-3.335-2.478h-.861Z" transform="translate(-57.506 -18.057)"/><path class="e" d="M192.388,63.067h-6.825l-1.78,3.893h-2.6L189.1,49.8l7.635,17.16h-2.641Zm-.983-2.29-2.378-5.489-2.481,5.489Z" transform="translate(-64.742 -17.491)"/><path class="e" d="M212.392,53.7V67.551h-2.429V53.7H206.3V51.41h9.762V53.7Z" transform="translate(-73.719 -18.057)"/><path class="e" d="M235.6,53.7h-6.427v3.893H235.4v2.29h-6.227v5.391H235.6v2.29h-8.83V51.41h8.83Z" transform="translate(-81.033 -18.057)"/><path class="e" d="M254.9,58.989h6.607v.532a11.134,11.134,0,0,1-.424,3.244,6.877,6.877,0,0,1-1.395,2.426,7.217,7.217,0,0,1-5.668,2.53,7.754,7.754,0,0,1-5.752-2.465,8.49,8.49,0,0,1,.186-11.926,8.3,8.3,0,0,1,9.286-1.614,10.094,10.094,0,0,1,3.053,2.511l-1.716,1.667a5.788,5.788,0,0,0-4.8-2.647,5.705,5.705,0,0,0-4.254,1.765,5.927,5.927,0,0,0-1.722,4.353,6.04,6.04,0,0,0,5.784,6.066,4.781,4.781,0,0,0,3.213-1.213,4.356,4.356,0,0,0,1.587-2.932H254.9Z" transform="translate(-87.875 -17.897)"/><path class="e" d="M279.27,51.41V67.551h-2.41V51.41Z" transform="translate(-98.932 -18.057)"/><path class="e" d="M297.42,53.7h-6.427v3.893h6.215v2.29h-6.227v5.391h6.427v2.29H288.59V51.41h8.83Z" transform="translate(-103.124 -18.057)"/><path class="e" d="M317.33,53.627,315.37,54.8a3.336,3.336,0,0,0-1.048-1.246,2.391,2.391,0,0,0-1.337-.337,2.438,2.438,0,0,0-1.664.577,1.791,1.791,0,0,0-.643,1.421c0,.785.585,1.421,1.742,1.9l1.6.649a6.766,6.766,0,0,1,2.847,1.946,4.412,4.412,0,0,1,.9,2.809A4.949,4.949,0,0,1,316.3,66.2a5.032,5.032,0,0,1-3.676,1.466,4.89,4.89,0,0,1-3.438-1.246,5.769,5.769,0,0,1-1.671-3.5l2.449-.545a4.213,4.213,0,0,0,.578,1.946,2.746,2.746,0,0,0,3.885.429q.085-.069.164-.144a2.914,2.914,0,0,0,.643-2.8,2.122,2.122,0,0,0-.4-.72,3.216,3.216,0,0,0-.707-.616,6.686,6.686,0,0,0-1.035-.551l-1.549-.649c-2.185-.934-3.284-2.3-3.284-4.094a3.909,3.909,0,0,1,1.382-3.043,4.948,4.948,0,0,1,3.425-1.239A4.8,4.8,0,0,1,317.33,53.627Z" transform="translate(-109.885 -17.873)"/><path class="e" d="M349.887,58.992h6.607v.532a11.132,11.132,0,0,1-.424,3.244,6.9,6.9,0,0,1-1.4,2.426,7.213,7.213,0,0,1-5.662,2.53,7.734,7.734,0,0,1-5.784-2.446,8.491,8.491,0,0,1,.156-11.926,8.315,8.315,0,0,1,5.808-2.392,7.982,7.982,0,0,1,3.5.779,10.033,10.033,0,0,1,3.091,2.491L354.058,55.9a5.823,5.823,0,0,0-4.794-2.647A5.758,5.758,0,0,0,345,55.015a5.948,5.948,0,0,0-1.716,4.353,6.04,6.04,0,0,0,5.784,6.066,4.807,4.807,0,0,0,3.213-1.213,4.325,4.325,0,0,0,1.581-2.932h-3.984Z" transform="translate(-121.8 -17.899)"/><path class="e" d="M377.245,60.674l4.987,6.877h-2.956l-4.569-6.6h-.431v6.6H371.86V51.41h2.828q3.174,0,4.582,1.2a4.437,4.437,0,0,1,1.549,3.536,4.567,4.567,0,0,1-.97,2.945A4.343,4.343,0,0,1,377.245,60.674Zm-3-1.849h.765q3.432,0,3.432-2.647,0-2.479-3.335-2.478h-.861Z" transform="translate(-132.88 -18.057)"/><path class="e" d="M391.677,59.254a7.946,7.946,0,0,1,2.474-5.839,8.123,8.123,0,0,1,5.925-2.446,8.4,8.4,0,0,1,8.316,8.4,7.991,7.991,0,0,1-2.461,5.9,8.393,8.393,0,0,1-11.568.272A7.964,7.964,0,0,1,391.677,59.254Zm2.436,0a5.96,5.96,0,0,0,10.114,4.419l.021-.021a6.3,6.3,0,0,0,0-8.655,5.923,5.923,0,0,0-10.135,4.288Z" transform="translate(-139.959 -17.902)"/><path class="e" d="M426.63,51.406v9.731a5.388,5.388,0,0,0,.643,3.036,3.582,3.582,0,0,0,5.063.611,3.641,3.641,0,0,0,.605-.611,5.3,5.3,0,0,0,.675-3.043V51.4h2.41V61.78a5.946,5.946,0,0,1-9.937,4.577,6,6,0,0,1-1.92-4.577V51.4Z" transform="translate(-151.571 -18.053)"/><path class="e" d="M452.99,61v6.553h-2.41V51.406h2.731a12.306,12.306,0,0,1,3.04.279,4.017,4.017,0,0,1,1.819,1.07,4.609,4.609,0,0,1,1.382,3.425A4.459,4.459,0,0,1,458.08,59.7a5.806,5.806,0,0,1-3.972,1.3Zm0-2.258h.906q3.323,0,3.323-2.6c0-1.661-1.144-2.5-3.425-2.5h-.8Z" transform="translate(-161.009 -18.053)"/></svg>