<?xml version="1.0" encoding="utf-8"?>
<!-- Generator: Adobe Illustrator 25.2.0, SVG Export Plug-In . SVG Version: 6.00 Build 0)  -->
<svg version="1.1" id="Layer_1" xmlns="http://www.w3.org/2000/svg" xmlns:xlink="http://www.w3.org/1999/xlink" x="0px" y="0px"
	 viewBox="0 0 298.5 49.8" style="enable-background:new 0 0 298.5 49.8;" xml:space="preserve">
<style type="text/css">
	.st0{fill:#B6A999;}
	.st1{opacity:0.4;fill:url(#SVGID_1_);enable-background:new    ;}
	.st2{opacity:0.4;fill:url(#SVGID_2_);enable-background:new    ;}
	.st3{opacity:0.4;fill:url(#SVGID_3_);enable-background:new    ;}
	.st4{fill:#231F20;}
</style>
<g id="logo">
	<g id="shapes">
		<path class="st0" d="M0.5,49.7h57.6L29.3,34.4L0.5,49.7z"/>
		<path class="st0" d="M29.3,32.2l26.1,13.9L55,45.7L29.3,18.1L3.6,45.7l-0.4,0.4L29.3,32.2z"/>
		<path class="st0" d="M2.2,44.3l27.1-29.1l27.1,29.1l2.1,2.2L44.9,24.9L29.3,0L13.6,24.9L0,46.5L2.2,44.3z"/>
		
			<linearGradient id="SVGID_1_" gradientUnits="userSpaceOnUse" x1="50.224" y1="135.6505" x2="51.224" y2="135.6505" gradientTransform="matrix(29.28 0 0 -46.5 -1441.2798 6331)">
			<stop  offset="0" style="stop-color:#231F20"/>
			<stop  offset="5.000000e-02" style="stop-color:#373435"/>
			<stop  offset="0.19" style="stop-color:#6C696A"/>
			<stop  offset="0.33" style="stop-color:#999797"/>
			<stop  offset="0.46" style="stop-color:#BEBDBD"/>
			<stop  offset="0.6" style="stop-color:#DADADA"/>
			<stop  offset="0.74" style="stop-color:#EFEEEE"/>
			<stop  offset="0.87" style="stop-color:#FBFBFB"/>
			<stop  offset="1" style="stop-color:#FFFFFF"/>
		</linearGradient>
		<path class="st1" d="M29.3,15.2l27.1,29.1l2.1,2.2L44.9,24.9L29.3,0V15.2z"/>
		
			<linearGradient id="SVGID_2_" gradientUnits="userSpaceOnUse" x1="50.1959" y1="131.8853" x2="51.1959" y2="131.8853" gradientTransform="matrix(28.823 0 0 -15.317 -1417.5161 2062.1572)">
			<stop  offset="0" style="stop-color:#231F20"/>
			<stop  offset="5.000000e-02" style="stop-color:#373435"/>
			<stop  offset="0.19" style="stop-color:#6C696A"/>
			<stop  offset="0.33" style="stop-color:#999797"/>
			<stop  offset="0.46" style="stop-color:#BEBDBD"/>
			<stop  offset="0.6" style="stop-color:#DADADA"/>
			<stop  offset="0.74" style="stop-color:#EFEEEE"/>
			<stop  offset="0.87" style="stop-color:#FBFBFB"/>
			<stop  offset="1" style="stop-color:#FFFFFF"/>
		</linearGradient>
		<path class="st2" d="M29.3,34.4v15.3h28.8L29.3,34.4z"/>
		
			<linearGradient id="SVGID_3_" gradientUnits="userSpaceOnUse" x1="50.0095" y1="134.4293" x2="51.0095" y2="134.4293" gradientTransform="matrix(26.124 0 0 -28.007 -1277.1678 3797.041)">
			<stop  offset="0" style="stop-color:#231F20"/>
			<stop  offset="5.000000e-02" style="stop-color:#373435"/>
			<stop  offset="0.19" style="stop-color:#6C696A"/>
			<stop  offset="0.33" style="stop-color:#999797"/>
			<stop  offset="0.46" style="stop-color:#BEBDBD"/>
			<stop  offset="0.6" style="stop-color:#DADADA"/>
			<stop  offset="0.74" style="stop-color:#EFEEEE"/>
			<stop  offset="0.87" style="stop-color:#FBFBFB"/>
			<stop  offset="1" style="stop-color:#FFFFFF"/>
		</linearGradient>
		<path class="st3" d="M29.3,32.2l26.1,13.9L55,45.7L29.3,18.1l0,0V32.2z"/>
	</g>
	<g id="text">
		<path class="st4" d="M82.5,15.1v13.9h-2.4V15.1h-3.7v-2.3h9.8v2.3H82.5z"/>
		<path class="st4" d="M92,19.1h6.9v-6.3h2.4v16.1h-2.4v-7.5H92v7.5h-2.4V12.8H92V19.1z"/>
		<path class="st4" d="M115.2,15.1h-6.4v3.9h6.2v2.3h-6.2v5.4h6.4v2.3h-8.8V12.8h8.8V15.1z"/>
		<path class="st4" d="M131.9,15.1v13.9h-2.4V15.1h-3.7v-2.3h9.8v2.3H131.9z"/>
		<path class="st4" d="M147.5,25h-6.8l-1.8,3.9h-2.6l7.9-17.2l7.6,17.2h-2.6L147.5,25z M146.5,22.7l-2.4-5.5l-2.5,5.5H146.5z"/>
		<path class="st4" d="M160.5,22.1l4.9,6.9h-2.9l-4.6-6.6h-0.4v6.6h-2.4V12.8h2.8c1.6-0.1,3.2,0.3,4.6,1.2c1,0.9,1.6,2.2,1.6,3.6
			c0,1.1-0.3,2.1-1,3C162.4,21.3,161.5,21.9,160.5,22.1z M157.5,20.2h0.8c2.3,0,3.4-0.9,3.4-2.6c0-1.7-1.1-2.5-3.3-2.5h-0.9
			L157.5,20.2z"/>
		<path class="st4" d="M176.9,20.5h6.6V21c0,1.1-0.1,2.2-0.4,3.2c-0.3,0.9-0.8,1.7-1.4,2.4c-1.4,1.6-3.5,2.6-5.7,2.5
			c-2.2,0-4.3-0.9-5.7-2.5c-1.6-1.6-2.4-3.7-2.4-5.9c0-4.6,3.7-8.4,8.4-8.4c0,0,0,0,0,0c1.2,0,2.4,0.3,3.5,0.8
			c1.2,0.6,2.2,1.5,3.1,2.5l-1.7,1.7c-1.1-1.6-2.9-2.6-4.8-2.6c-1.6,0-3.1,0.6-4.3,1.8c-1.1,1.1-1.8,2.7-1.7,4.3
			c0,3.2,2.5,5.9,5.8,6.1c1.2,0,2.3-0.4,3.2-1.2c0.9-0.7,1.5-1.8,1.6-2.9h-4V20.5z"/>
		<path class="st4" d="M196.6,15.1h-6.4v3.9h6.2v2.3h-6.2v5.4h6.4v2.3h-8.8V12.8h8.8V15.1z"/>
		<path class="st4" d="M205.7,15.1v13.9h-2.4V15.1h-3.7v-2.3h9.8v2.3H205.7z"/>
		<path class="st4" d="M221.6,15.1h-6.4v3.9h6.2v2.3h-6.2v5.4h6.4v2.3h-8.8V12.8h8.8V15.1z"/>
		<path class="st4" d="M226.1,28.9V12.8h3.3c1.3,0,2.6,0.1,3.8,0.5c1,0.3,1.9,0.9,2.7,1.6c1.7,1.5,2.6,3.7,2.5,6
			c0.1,3.4-2.1,6.5-5.3,7.6c-1.2,0.3-2.5,0.5-3.8,0.4L226.1,28.9z M228.5,26.6h1.1c0.9,0,1.8-0.1,2.7-0.3c2.3-0.8,3.8-3,3.7-5.4
			c0.1-1.6-0.6-3.2-1.8-4.3c-1.3-1.1-3-1.6-4.7-1.5h-1.1L228.5,26.6z"/>
		<path class="st4" d="M87.1,35.8l-1.9,1.2c-0.2-0.5-0.6-0.9-1.1-1.2c-0.4-0.2-0.9-0.4-1.3-0.3c-0.6,0-1.2,0.2-1.7,0.6
			c-0.4,0.4-0.7,0.9-0.6,1.4c0,0.8,0.6,1.4,1.7,1.9l1.6,0.6c1.1,0.4,2.1,1.1,2.9,1.9c0.6,0.8,0.9,1.8,0.9,2.8c0,1.4-0.5,2.7-1.5,3.7
			c-1,1-2.3,1.5-3.7,1.5c-1.3,0-2.5-0.4-3.4-1.2c-0.9-0.9-1.5-2.2-1.7-3.5l2.4-0.5c0,0.7,0.2,1.4,0.6,1.9c0.9,1.2,2.7,1.4,3.9,0.5
			c0,0,0,0,0,0c0.1,0,0.1-0.1,0.2-0.1c0.5-0.5,0.8-1.2,0.7-1.9c0-0.3,0-0.6-0.1-0.9c-0.1-0.3-0.2-0.5-0.4-0.7
			c-0.2-0.2-0.4-0.4-0.7-0.6c-0.3-0.2-0.7-0.4-1-0.6l-1.5-0.6c-2.2-0.9-3.3-2.3-3.3-4.1c0-1.2,0.5-2.3,1.4-3
			c0.9-0.8,2.2-1.3,3.4-1.2C84.7,33,86.3,34.1,87.1,35.8z"/>
		<path class="st4" d="M96.4,35.6v13.9h-2.4V35.6h-3.7v-2.3h9.8v2.3H96.4z"/>
		<path class="st4" d="M108.8,42.6l4.9,6.9h-2.9l-4.6-6.6h-0.4v6.6h-2.4V33.4h2.8c2.1,0,3.6,0.4,4.6,1.2c1,0.9,1.6,2.2,1.6,3.5
			c0,1.1-0.3,2.1-1,2.9C110.8,41.9,109.9,42.4,108.8,42.6z M105.8,40.8h0.8c2.3,0,3.4-0.9,3.4-2.6c0-1.7-1.1-2.5-3.3-2.5h-0.9V40.8z
			"/>
		<path class="st4" d="M127.6,45.6h-6.8l-1.8,3.9h-2.6l7.9-17.2l7.6,17.2h-2.6L127.6,45.6z M126.7,43.3l-2.4-5.5l-2.5,5.5H126.7z"/>
		<path class="st4" d="M138.7,35.6v13.9h-2.4V35.6h-3.7v-2.3h9.8v2.3H138.7z"/>
		<path class="st4" d="M154.6,35.6h-6.4v3.9h6.2v2.3h-6.2v5.4h6.4v2.3h-8.8V33.4h8.8V35.6z"/>
		<path class="st4" d="M167,41.1h6.6v0.5c0,1.1-0.1,2.2-0.4,3.2c-0.3,0.9-0.8,1.7-1.4,2.4c-1.4,1.7-3.5,2.6-5.7,2.5
			c-2.2,0-4.3-0.9-5.8-2.5c-3.2-3.4-3.1-8.7,0.2-11.9c2.5-2.4,6.2-3.1,9.3-1.6c1.2,0.6,2.2,1.5,3.1,2.5l-1.7,1.7
			c-1.1-1.6-2.9-2.6-4.8-2.6c-1.6,0-3.1,0.6-4.3,1.8c-1.1,1.2-1.8,2.7-1.7,4.4c0,3.2,2.5,5.9,5.8,6.1c1.2,0,2.3-0.4,3.2-1.2
			c0.9-0.7,1.5-1.8,1.6-2.9h-4V41.1z"/>
		<path class="st4" d="M180.3,33.4v16.1h-2.4V33.4H180.3z"/>
		<path class="st4" d="M194.3,35.6h-6.4v3.9h6.2v2.3h-6.2v5.4h6.4v2.3h-8.8V33.4h8.8L194.3,35.6z"/>
		<path class="st4" d="M207.4,35.8l-2,1.2c-0.2-0.5-0.6-0.9-1-1.2c-0.4-0.2-0.9-0.4-1.3-0.3c-0.6,0-1.2,0.2-1.7,0.6
			c-0.4,0.4-0.7,0.9-0.6,1.4c0,0.8,0.6,1.4,1.7,1.9l1.6,0.6c1.1,0.4,2.1,1.1,2.8,1.9c0.6,0.8,0.9,1.8,0.9,2.8c0,1.4-0.5,2.7-1.5,3.7
			c-1,1-2.3,1.5-3.7,1.5c-1.3,0-2.5-0.4-3.4-1.2c-0.9-0.9-1.5-2.2-1.7-3.5l2.4-0.5c0,0.7,0.2,1.4,0.6,1.9c0.9,1.2,2.7,1.4,3.9,0.5
			c0,0,0,0,0,0c0.1,0,0.1-0.1,0.2-0.1c0.7-0.8,0.9-1.8,0.6-2.8c-0.1-0.3-0.2-0.5-0.4-0.7c-0.2-0.2-0.4-0.4-0.7-0.6
			c-0.3-0.2-0.7-0.4-1-0.6l-1.5-0.6c-2.2-0.9-3.3-2.3-3.3-4.1c0-1.2,0.5-2.3,1.4-3c0.9-0.8,2.2-1.3,3.4-1.2
			C205,33,206.7,34.1,207.4,35.8z"/>
		<path class="st4" d="M228.1,41.1h6.6v0.5c0,1.1-0.1,2.2-0.4,3.2c-0.3,0.9-0.8,1.7-1.4,2.4c-1.4,1.7-3.5,2.6-5.7,2.5
			c-2.2,0-4.3-0.8-5.8-2.4c-3.2-3.3-3.1-8.7,0.2-11.9c1.5-1.5,3.6-2.4,5.8-2.4c1.2,0,2.4,0.3,3.5,0.8c1.2,0.6,2.2,1.5,3.1,2.5
			l-1.7,1.7c-1.1-1.6-2.9-2.6-4.8-2.6c-1.6,0-3.2,0.6-4.3,1.8c-1.1,1.2-1.8,2.7-1.7,4.4c0,3.2,2.5,5.9,5.8,6.1
			c1.2,0,2.3-0.4,3.2-1.2c0.9-0.7,1.5-1.8,1.6-2.9h-4L228.1,41.1z"/>
		<path class="st4" d="M244.4,42.6l5,6.9h-3l-4.6-6.6h-0.4v6.6H239V33.4h2.8c2.1,0,3.6,0.4,4.6,1.2c1,0.9,1.6,2.2,1.5,3.5
			c0,1.1-0.3,2.1-1,2.9C246.3,41.9,245.4,42.4,244.4,42.6z M241.4,40.8h0.8c2.3,0,3.4-0.9,3.4-2.6c0-1.7-1.1-2.5-3.3-2.5h-0.9
			L241.4,40.8z"/>
		<path class="st4" d="M251.7,41.4c0-2.2,0.9-4.3,2.5-5.8c1.6-1.6,3.7-2.5,5.9-2.4c4.6,0,8.3,3.8,8.3,8.4c0,2.2-0.9,4.4-2.5,5.9
			c-3.2,3.2-8.3,3.3-11.6,0.3C252.6,46.1,251.6,43.7,251.7,41.4z M254.2,41.4c-0.1,3.3,2.5,6,5.8,6.1c1.6,0,3.2-0.6,4.3-1.7l0,0
			c2.3-2.4,2.3-6.2,0-8.7c-2.3-2.3-6-2.3-8.4-0.1C254.8,38.2,254.1,39.8,254.2,41.4L254.2,41.4z"/>
		<path class="st4" d="M275.1,33.4v9.7c-0.1,1.1,0.1,2.1,0.6,3c1.2,1.6,3.5,1.9,5,0.6c0,0,0,0,0,0c0.2-0.2,0.4-0.4,0.6-0.6
			c0.5-0.9,0.8-2,0.7-3v-9.7h2.4v10.4c0.1,3.3-2.5,6-5.8,6.1c-1.5,0-3-0.5-4.2-1.5c-1.3-1.2-2-2.8-1.9-4.6V33.3L275.1,33.4z"/>
		<path class="st4" d="M292,42.9v6.6h-2.4V33.4h2.7c1,0,2,0.1,3,0.3c0.7,0.2,1.3,0.6,1.8,1.1c0.9,0.9,1.4,2.1,1.4,3.4
			c0.1,1.3-0.5,2.6-1.5,3.5c-1.1,0.9-2.5,1.4-4,1.3H292z M292,40.7h0.9c2.2,0,3.3-0.9,3.3-2.6c0-1.7-1.1-2.5-3.4-2.5H292L292,40.7z"
			/>
	</g>
</g>
</svg>
